<svg id="Layer_1" xmlns="http://www.w3.org/2000/svg" xmlns:xlink="http://www.w3.org/1999/xlink" viewBox="0 0 505.1 300.7"><style>.st0{fill:#9a9b9c}.st1{fill:#6b6e6f}</style><path class="st0" d="M100.8 283h13.1v2.8h-10v4.8h8.9v2.8h-8.9v7.1h-3.1V283z"/><path class="st0" d="M132.5 300.7c-1.4 0-2.6-.2-3.7-.7-1.1-.5-2.1-1.1-2.9-1.9-.8-.8-1.4-1.8-1.9-2.8-.5-1.1-.7-2.2-.7-3.5 0-1.2.2-2.4.7-3.5s1.1-2 1.9-2.9c.8-.8 1.8-1.5 2.9-1.9 1.1-.5 2.4-.7 3.7-.7s2.6.2 3.7.7 2.1 1.1 2.9 1.9c.8.8 1.4 1.8 1.9 2.8s.7 2.2.7 3.5c0 1.2-.2 2.4-.7 3.5-.5 1.1-1.1 2-1.9 2.9-.8.8-1.8 1.5-2.9 2-1.1.3-2.3.6-3.7.6zm.1-2.9c.9 0 1.7-.2 2.4-.5s1.3-.8 1.9-1.3.9-1.2 1.2-2c.3-.7.4-1.5.4-2.4 0-.8-.1-1.6-.4-2.4-.3-.8-.7-1.4-1.2-2-.5-.6-1.2-1-1.9-1.3-.7-.3-1.5-.5-2.4-.5-.9 0-1.7.2-2.4.5s-1.3.8-1.9 1.3c-.5.6-.9 1.2-1.2 2-.3.7-.4 1.5-.4 2.4 0 .8.1 1.6.4 2.4.3.8.7 1.4 1.2 2 .5.6 1.2 1 1.9 1.3.7.4 1.5.5 2.4.5z"/><path class="st0" d="M160.5 300.7c-1.3 0-2.5-.2-3.6-.7-1.1-.5-2-1.1-2.8-1.9-.8-.8-1.4-1.8-1.9-2.8-.5-1.1-.7-2.3-.7-3.5 0-1.2.2-2.4.7-3.5.4-1.1 1.1-2 1.9-2.9s1.8-1.5 2.9-1.9 2.3-.7 3.7-.7c.8 0 1.5.1 2.2.2.7.1 1.3.3 1.8.6.6.2 1.1.5 1.5.9.5.3.9.7 1.3 1.1l-2 2.3c-.7-.6-1.4-1.2-2.2-1.6s-1.7-.6-2.7-.6c-.8 0-1.6.2-2.3.5-.7.3-1.3.8-1.8 1.3-.5.6-.9 1.2-1.2 2-.3.7-.4 1.5-.4 2.4 0 .8.1 1.6.4 2.4.3.8.7 1.4 1.2 2 .5.6 1.1 1 1.8 1.3.7.3 1.5.5 2.3.5 1.1 0 2-.2 2.8-.6.8-.4 1.5-1 2.3-1.7l2 2c-.5.5-.9.9-1.4 1.3-.5.4-1 .7-1.6 1s-1.2.5-1.9.6-1.5 0-2.3 0z"/><path class="st0" d="M184.8 300.6c-1.1 0-2.2-.2-3.1-.5-.9-.3-1.7-.8-2.4-1.5-.7-.6-1.2-1.4-1.5-2.4-.4-1-.5-2.1-.5-3.3v-10h3.1v9.9c0 1.6.4 2.9 1.2 3.7.8.8 1.9 1.3 3.3 1.3s2.5-.4 3.3-1.2c.8-.8 1.2-2 1.2-3.6v-10h3.1v9.9c0 1.3-.2 2.4-.5 3.4-.4 1-.9 1.8-1.5 2.4s-1.4 1.1-2.4 1.5c-1.1.3-2.1.4-3.3.4z"/><path class="st0" d="M209.6 300.6c-1.4 0-2.7-.2-3.9-.7-1.2-.5-2.4-1.2-3.4-2.1l1.9-2.2c.9.7 1.7 1.3 2.6 1.7.9.4 1.9.6 3 .6 1 0 1.7-.2 2.3-.6.6-.4.8-.9.8-1.6 0-.3-.1-.6-.2-.8-.1-.2-.3-.5-.6-.7-.3-.2-.7-.4-1.2-.6-.5-.2-1.2-.4-2-.5-.9-.2-1.8-.5-2.5-.7-.7-.3-1.3-.6-1.8-1s-.9-.9-1.1-1.4c-.3-.6-.4-1.2-.4-2 0-.7.1-1.4.4-2s.7-1.2 1.2-1.6c.5-.4 1.2-.8 1.9-1 .7-.2 1.5-.4 2.4-.4 1.3 0 2.5.2 3.5.6 1 .4 2 .9 2.9 1.6l-1.7 2.3c-.8-.6-1.6-1-2.4-1.3-.8-.3-1.6-.5-2.4-.5-.9 0-1.6.2-2.1.6-.5.4-.8.9-.8 1.5 0 .3.1.6.2.9s.3.5.6.7c.3.2.7.4 1.3.6.5.2 1.2.4 2.1.6.9.2 1.7.5 2.5.8.7.3 1.3.6 1.8 1s.8.9 1.1 1.4.4 1.2.4 1.9c0 .8-.2 1.5-.5 2.2-.3.6-.7 1.2-1.3 1.6s-1.2.8-2 1c-.8 0-1.7.1-2.6.1z"/><path class="st0" d="M226.3 283h13v2.8h-10v4.5h8.8v2.8h-8.8v4.6h10.1v2.8h-13.1V283z"/><path class="st0" d="M249.9 283h6.6c1.4 0 2.6.2 3.8.7 1.1.4 2.1 1 3 1.8.8.8 1.5 1.7 1.9 2.7.5 1.1.7 2.2.7 3.4 0 1.2-.2 2.4-.7 3.4-.5 1.1-1.1 2-1.9 2.8-.8.8-1.8 1.4-3 1.8s-2.4.7-3.8.7h-6.6V283zm6.5 14.6c.9 0 1.8-.1 2.5-.4.8-.3 1.4-.7 1.9-1.2s.9-1.1 1.2-1.9c.3-.7.4-1.5.4-2.4 0-.8-.1-1.6-.4-2.4-.3-.7-.7-1.4-1.2-1.9s-1.2-.9-1.9-1.2c-.8-.3-1.6-.4-2.5-.4H253v11.9h3.4z"/><path class="st0" d="M289.2 283h3.4l5.3 13.4 5.3-13.4h3.3l-7.3 17.5h-2.7l-7.3-17.5z"/><path class="st0" d="M322.6 282.8h2.9l7.7 17.5h-3.3l-1.8-4.2h-8.3l-1.8 4.2h-3.2l7.8-17.5zm4.4 10.7l-3-7-3 7h6z"/><path class="st0" d="M343 283h3.1v14.6h9.2v2.8H343V283z"/><path class="st0" d="M372.5 300.6c-1.1 0-2.2-.2-3.1-.5-.9-.3-1.7-.8-2.4-1.5-.7-.6-1.2-1.4-1.5-2.4-.4-1-.5-2.1-.5-3.3v-10h3.1v9.9c0 1.6.4 2.9 1.2 3.7s1.9 1.3 3.3 1.3 2.5-.4 3.3-1.2 1.2-2 1.2-3.6v-10h3.1v9.9c0 1.3-.2 2.4-.5 3.4-.4 1-.9 1.8-1.5 2.4s-1.4 1.1-2.4 1.5c-1.1.3-2.1.4-3.3.4z"/><path class="st0" d="M391.1 283h13v2.8h-10v4.5h8.8v2.8h-8.8v4.6h10.1v2.8h-13.1V283z"/><g><path class="st1" d="M105.8 214.4c-1.7-1.5-3.8-2.7-6.3-3.5-2.5-.8-5.3-1.2-8.3-1.2H70.3v52.2h9.2v-16.8H90c2.9 0 5.7-.4 8.2-1.2 2.6-.8 4.8-1.9 6.7-3.4 1.9-1.5 3.4-3.3 4.5-5.6 1.1-2.2 1.7-4.8 1.7-7.7v-.1c0-2.6-.5-5-1.4-7.2-.8-2.1-2.2-4-3.9-5.5zm-4.1 13c0 2.7-1 5-3.1 6.7-2 1.7-4.8 2.6-8.4 2.6H79.5v-18.9h10.8c3.5 0 6.3.8 8.3 2.4 2.1 1.6 3.1 3.9 3.1 7v.2z"/><path class="st1" d="M160 214.4c-1.7-1.5-3.8-2.7-6.3-3.5-2.5-.8-5.3-1.2-8.3-1.2h-20.8v52.2h9.2v-16.8h10.5c2.9 0 5.7-.4 8.2-1.2 2.6-.8 4.8-1.9 6.7-3.4 1.9-1.5 3.4-3.3 4.5-5.6 1.1-2.2 1.7-4.8 1.7-7.7v-.1c0-2.6-.5-5-1.4-7.2-1-2.1-2.3-4-4-5.5zm-4.1 13c0 2.7-1 5-3.1 6.7-2 1.7-4.8 2.6-8.4 2.6h-10.8v-18.9h10.8c3.5 0 6.3.8 8.3 2.4 2.1 1.6 3.1 3.9 3.1 7v.2z"/><path class="st1" d="M268.6 239.9c1.5-.9 2.9-2 4-3.4 1.1-1.3 2-2.8 2.6-4.5.6-1.7.9-3.6.9-5.8v-.1c0-2.3-.4-4.4-1.1-6.3-.8-1.9-1.8-3.6-3.2-5-1.7-1.6-3.8-2.9-6.4-3.8-2.6-.9-5.5-1.4-8.8-1.4H233v52.2h9.2v-18.2h11.7l13 18.2h10.9L263.5 242c1.9-.4 3.6-1.1 5.1-2.1zm-26.4-4.4v-17.6h13.5c3.5 0 6.2.7 8.1 2.2 1.9 1.5 2.9 3.6 2.9 6.5v.1c0 2.7-1 4.8-3 6.4-2 1.6-4.6 2.4-7.9 2.4h-13.6z"/><path class="st1" d="M287.5 218.1h16.8v43.7h9.3v-43.7h16.8v-8.5h-42.9z"/><path class="st1" d="M379.1 239.7c0 4.8-1.2 8.5-3.6 10.9-2.4 2.4-5.6 3.7-9.8 3.7-4.2 0-7.5-1.3-9.9-3.8-2.4-2.5-3.6-6.2-3.6-11.1v-29.7H343v30.1c0 3.8.5 7.1 1.6 10 1.1 2.9 2.6 5.3 4.5 7.2 2 1.9 4.3 3.4 7.1 4.4 2.8 1 5.9 1.5 9.3 1.5 3.5 0 6.6-.5 9.4-1.5s5.2-2.4 7.1-4.4c2-2 3.5-4.4 4.6-7.3s1.6-6.3 1.6-10.2v-29.6H379v29.8z"/><path class="st1" d="M440.5 239.9c1.5-.9 2.9-2 4-3.4 1.1-1.3 2-2.8 2.6-4.5.6-1.7.9-3.6.9-5.8v-.1c0-2.3-.4-4.4-1.1-6.3-.8-1.9-1.8-3.6-3.2-5-1.7-1.6-3.8-2.9-6.4-3.8-2.6-.9-5.5-1.4-8.8-1.4H405v52.2h9.2v-18.2h11.7l13 18.2h10.9L435.5 242c1.8-.4 3.5-1.1 5-2.1zm-26.4-4.4v-17.6h13.5c3.5 0 6.2.7 8.1 2.2s2.9 3.6 2.9 6.5v.1c0 2.7-1 4.8-3 6.4s-4.6 2.4-7.9 2.4h-13.6z"/><path class="st1" d="M194.1 217.9h23.6v-8.3h-39.1v8.3h9.3z"/><path class="st1" d="M187.9 239.6h26.4v-8.3h-35.7v30.5h39.5v-8.2h-30.2z"/><path class="st1" d="M478.7 217.9h23.7v-8.3h-39.1v8.3h9.2z"/><path class="st1" d="M472.5 253.6v-14H499v-8.3h-35.7v30.5h39.4v-8.2z"/><path class="st1" d="M25.6 209.3L2.4 261.8h9.5l5.4-12.6 3.4-8.1 9.1-20.9 9.1 20.9 3.4 8.1 5.3 12.6h9.9l-23.3-52.5z"/></g><g><path class="st1" d="M0 291.4l92.3 1.9v-4.2z"/><path class="st1" d="M505.1 291.4l-92.3 1.9v-4.2z"/></g><g><defs><path id="SVGID_1_" d="M324.5 147.8c12.2-15.5 19.5-35.1 19.5-56.4C344 41 303 0 252.6 0c-50.4 0-91.5 41-91.5 91.5s41 91.5 91.5 91.5c20.1 0 38.7-6.5 53.8-17.6l-7.6-11.8c-12.9 9.6-28.9 15.4-46.2 15.4-42.7 0-77.5-34.7-77.5-77.5S209.8 14 252.6 14c42.7 0 77.5 34.7 77.5 77.5 0 16-4.9 30.8-13.2 43.2L252.2 24l-53.8 102h42.9l11.6-20.8 13 20.8h16.5l-30.2-48.2-19.1 34.2h-11.4l31.2-59.1 61.8 105.9c.5-.6 1.3-1.3 2.3-2.4 2.6-2.7 5.1-5.5 7.5-8.6z"/></defs><clipPath id="SVGID_2_"><use xlink:href="#SVGID_1_" overflow="visible"/></clipPath><path clip-path="url(#SVGID_2_)" fill="#005f90" d="M139.4 65.6h252.7v117.3H139.4z"/><linearGradient id="SVGID_3_" gradientUnits="userSpaceOnUse" x1="233.5348" y1="103.1727" x2="227.8506" y2="45.0675"><stop offset="0" stop-color="#209ecc"/><stop offset="1" stop-color="#005f90"/></linearGradient><ellipse cx="227.2" cy="38.4" rx="144.9" ry="80.8" clip-path="url(#SVGID_2_)" fill="url(#SVGID_3_)"/></g></svg>
